<svg width="63" height="63" viewBox="0 0 63 63" fill="none" xmlns="http://www.w3.org/2000/svg">
<path d="M53.1562 46.2656C50.4423 46.2656 48.2344 44.0577 48.2344 41.3438C48.2344 38.6298 50.4423 36.4219 53.1562 36.4219C55.8702 36.4219 58.0781 38.6298 58.0781 41.3438C58.0781 44.0577 55.8702 46.2656 53.1562 46.2656Z" fill="#E5B57A"/>
<path d="M9.84375 46.2656C7.12983 46.2656 4.92188 44.0577 4.92188 41.3438C4.92188 38.6298 7.12983 36.4219 9.84375 36.4219C12.5577 36.4219 14.7656 38.6298 14.7656 41.3438C14.7656 44.0577 12.5577 46.2656 9.84375 46.2656Z" fill="#E5B57A"/>
<path d="M21.6562 22.6406C20.0281 22.6406 18.7031 21.3157 18.7031 19.6875C18.7031 18.0593 20.0281 16.7344 21.6562 16.7344C23.2844 16.7344 24.6094 18.0593 24.6094 19.6875C24.6094 21.3157 23.2844 22.6406 21.6562 22.6406Z" fill="#E5B57A"/>
<path d="M31.5 22.6406C29.8718 22.6406 28.5469 21.3157 28.5469 19.6875C28.5469 18.0593 29.8718 16.7344 31.5 16.7344C33.1282 16.7344 34.4531 18.0593 34.4531 19.6875C34.4531 21.3157 33.1282 22.6406 31.5 22.6406Z" fill="#E5B57A"/>
<path d="M41.3438 22.6406C39.7156 22.6406 38.3906 21.3157 38.3906 19.6875C38.3906 18.0593 39.7156 16.7344 41.3438 16.7344C42.9719 16.7344 44.2969 18.0593 44.2969 19.6875C44.2969 21.3157 42.9719 22.6406 41.3438 22.6406Z" fill="#E5B57A"/>
<path d="M53.1562 42.3281C53.6999 42.3281 54.1406 41.8874 54.1406 41.3438C54.1406 40.8001 53.6999 40.3594 53.1562 40.3594C52.6126 40.3594 52.1719 40.8001 52.1719 41.3438C52.1719 41.8874 52.6126 42.3281 53.1562 42.3281Z" fill="black"/>
<path d="M52.1719 48.2344H54.1406V50.2031H52.1719V48.2344Z" fill="black"/>
<path d="M56.1094 48.2344H58.0781V50.2031H56.1094V48.2344Z" fill="black"/>
<path d="M48.2344 48.2344H50.2031V50.2031H48.2344V48.2344Z" fill="black"/>
<path d="M9.84375 42.3281C10.3874 42.3281 10.8281 41.8874 10.8281 41.3438C10.8281 40.8001 10.3874 40.3594 9.84375 40.3594C9.30009 40.3594 8.85938 40.8001 8.85938 41.3438C8.85938 41.8874 9.30009 42.3281 9.84375 42.3281Z" fill="black"/>
<path d="M12.7969 48.2344H14.7656V50.2031H12.7969V48.2344Z" fill="black"/>
<path d="M8.85938 48.2344H10.8281V50.2031H8.85938V48.2344Z" fill="black"/>
<path d="M4.92188 48.2344H6.89062V50.2031H4.92188V48.2344Z" fill="black"/>
<path d="M62.0156 4.92188V2.95312C62.0156 1.86736 61.1326 0.984375 60.0469 0.984375H46.2656C45.1799 0.984375 44.2969 1.86736 44.2969 2.95312V4.92188H18.7031V2.95312C18.7031 1.86736 17.8201 0.984375 16.7344 0.984375H2.95312C1.86736 0.984375 0.984375 1.86736 0.984375 2.95312V4.92188C0.984375 6.00764 1.86736 6.89062 2.95312 6.89062V32.6655C1.81027 33.073 0.984375 34.1558 0.984375 35.4375V49.2188V51.1875V62.0156H62.0156V51.1875V50.2464V35.4375C62.0156 34.1558 61.1897 33.073 60.0469 32.6655V6.89062C61.1326 6.89062 62.0156 6.00764 62.0156 4.92188ZM58.0781 30.1081L54.5482 26.5781L58.0781 23.0482V30.1081ZM2.95312 53.9595C3.26222 54.0698 3.591 54.1406 3.9375 54.1406H15.75C17.3782 54.1406 18.7031 52.8157 18.7031 51.1875V44.2969H44.2969V51.1875C44.2969 52.8157 45.6218 54.1406 47.25 54.1406H59.0625C59.409 54.1406 59.7378 54.0698 60.0469 53.9595V56.1094H2.95312V53.9595ZM4.92188 9.26691L8.45184 12.7969L4.92188 16.3268V9.26691ZM14.3581 18.7031H5.32941L9.84375 14.1888L14.3581 18.7031ZM11.2357 12.7969L14.7656 9.26691V16.3268L11.2357 12.7969ZM14.3581 20.6719L9.84375 25.1862L5.32941 20.6719H14.3581ZM14.7656 23.0482V30.1081L11.2357 26.5781L14.7656 23.0482ZM9.84375 11.405L5.32941 6.89062H14.3581L9.84375 11.405ZM4.92188 23.0482L8.45184 26.5781L4.92188 30.1081V23.0482ZM9.84375 27.97L14.3581 32.4844H5.32941L9.84375 27.97ZM23.625 38.3601C24.5228 39.566 25.9471 40.3594 27.5625 40.3594C29.1779 40.3594 30.6022 39.566 31.5 38.3601C32.3978 39.566 33.8221 40.3594 35.4375 40.3594C37.0529 40.3594 38.4772 39.566 39.375 38.3601C40.2728 39.566 41.6971 40.3594 43.3125 40.3594C43.6452 40.3594 43.973 40.3151 44.2969 40.2491V42.3281H18.7031V40.2491C19.027 40.3151 19.3548 40.3594 19.6875 40.3594C21.3029 40.3594 22.7272 39.566 23.625 38.3601ZM44.2969 35.4375V38.1997C43.9799 38.3119 43.6521 38.3906 43.3125 38.3906C41.6843 38.3906 40.3594 37.0657 40.3594 35.4375V33.4688V24.6094H38.3906V33.4688V35.4375C38.3906 37.0657 37.0657 38.3906 35.4375 38.3906C33.8093 38.3906 32.4844 37.0657 32.4844 35.4375V24.6094H30.5156V35.4375C30.5156 37.0657 29.1907 38.3906 27.5625 38.3906C25.9343 38.3906 24.6094 37.0657 24.6094 35.4375V33.4688V24.6094H22.6406V33.4688V35.4375C22.6406 37.0657 21.3157 38.3906 19.6875 38.3906C19.3479 38.3906 19.0201 38.3119 18.7031 38.1997V35.4375C18.7031 34.1558 17.8772 33.073 16.7344 32.6655V10.8281H20.6719V16.9155C20.981 16.8053 21.3097 16.7344 21.6562 16.7344C22.0028 16.7344 22.3315 16.8053 22.6406 16.9155V10.8281H30.5156V16.9155C30.8247 16.8053 31.1535 16.7344 31.5 16.7344C31.8465 16.7344 32.1753 16.8053 32.4844 16.9155V10.8281H40.3594V16.9155C40.6685 16.8053 40.9972 16.7344 41.3438 16.7344C41.6903 16.7344 42.019 16.8053 42.3281 16.9155V10.8281H46.2656V32.6655C45.1228 33.073 44.2969 34.1558 44.2969 35.4375ZM48.2344 23.0482L51.7643 26.5781L48.2344 30.1081V23.0482ZM48.6419 20.6719H57.6706L53.1562 25.1862L48.6419 20.6719ZM48.6419 18.7031L53.1562 14.1888L57.6706 18.7031H48.6419ZM48.2344 16.3268V9.26691L51.7643 12.7969L48.2344 16.3268ZM48.6419 6.89062H57.6706L53.1562 11.405L48.6419 6.89062ZM53.1562 27.97L57.6706 32.4844H48.6419L53.1562 27.97ZM58.0781 16.3268L54.5482 12.7969L58.0781 9.26691V16.3268ZM46.2656 2.95312H60.0469L60.0488 4.92188H47.25H46.2656V2.95312ZM46.2656 6.89062V8.85938H16.7344V6.89062H46.2656ZM2.95312 2.95312H16.7344L16.7363 4.92188H15.75H2.95312V2.95312ZM2.95312 35.4375C2.95312 34.8941 3.39412 34.4531 3.9375 34.4531H15.75C16.2934 34.4531 16.7344 34.8941 16.7344 35.4375V51.1875C16.7344 51.7309 16.2934 52.1719 15.75 52.1719H3.9375C3.39412 52.1719 2.95312 51.7309 2.95312 51.1875V49.2188V35.4375ZM2.95312 60.0469V58.0781H60.0469V60.0469H2.95312ZM60.0469 51.1875C60.0469 51.7309 59.6059 52.1719 59.0625 52.1719H47.25C46.7066 52.1719 46.2656 51.7309 46.2656 51.1875V35.4375C46.2656 34.8941 46.7066 34.4531 47.25 34.4531H59.0625C59.6059 34.4531 60.0469 34.8941 60.0469 35.4375V50.2464V51.1875Z" fill="black"/>
</svg>
