<svg width="63" height="63" viewBox="0 0 63 63" fill="none" xmlns="http://www.w3.org/2000/svg">
<path d="M37.4062 32.4844V31.5H29.0322C26.397 33.6765 24.6094 39.2982 24.6094 46.2656C24.6094 53.233 26.397 58.8548 29.0322 61.0312H37.4062V60.0469C35.0782 60.0469 32.4844 54.3867 32.4844 46.2656C32.4844 38.1445 35.0782 32.4844 37.4062 32.4844Z" fill="#E5B57A"/>
<path d="M15.75 10.8281C14.1218 10.8281 12.7969 12.1531 12.7969 13.7812C12.7969 15.4094 14.1218 16.7344 15.75 16.7344C17.3782 16.7344 18.7031 15.4094 18.7031 13.7812C18.7031 12.1531 17.3782 10.8281 15.75 10.8281ZM15.75 14.7656C15.2076 14.7656 14.7656 14.3246 14.7656 13.7812C14.7656 13.2379 15.2076 12.7969 15.75 12.7969C16.2924 12.7969 16.7344 13.2379 16.7344 13.7812C16.7344 14.3246 16.2924 14.7656 15.75 14.7656Z" fill="black"/>
<path d="M41.3438 30.5156H22.6406V13.7812C22.6406 13.4466 22.6081 13.1198 22.5619 12.7969H37.4062C40.1202 12.7969 42.3281 10.5889 42.3281 7.875V2.95312C42.3281 1.86736 41.4451 0.984375 40.3594 0.984375H2.95312C1.86736 0.984375 0.984375 1.86736 0.984375 2.95312V7.875C0.984375 10.5889 3.19233 12.7969 5.90625 12.7969H8.93813C8.89186 13.1198 8.85938 13.4466 8.85938 13.7812V30.5156H7.875C3.94636 30.5156 0.984375 37.2871 0.984375 46.2656C0.984375 55.2441 3.94636 62.0156 7.875 62.0156H41.3438C45.2724 62.0156 48.2344 55.2441 48.2344 46.2656C48.2344 37.2871 45.2724 30.5156 41.3438 30.5156ZM5.90625 10.8281C4.27809 10.8281 2.95312 9.50316 2.95312 7.875V2.95312H40.3594V7.875C40.3594 9.50316 39.0344 10.8281 37.4062 10.8281H21.9663C20.8579 8.50402 18.4915 6.89062 15.75 6.89062C13.0085 6.89062 10.6421 8.50402 9.53367 10.8281H5.90625ZM10.8281 34.4541V13.7812C10.8281 11.0673 13.0361 8.85938 15.75 8.85938C18.4639 8.85938 20.6719 11.0673 20.6719 13.7812V34.4531L10.8281 34.4541ZM2.95312 46.2656C2.95312 38.1445 5.54695 32.4844 7.875 32.4844H8.85938V34.4531C8.85938 34.6195 8.88595 34.778 8.92533 34.9315C7.63383 37.8551 6.89062 41.9452 6.89062 46.2656C6.89062 52.3481 8.253 57.4097 10.3507 60.0469H7.875C5.54695 60.0469 2.95312 54.3867 2.95312 46.2656ZM9.07889 50.2031H24.8122C24.7452 49.5643 24.697 48.9067 24.6635 48.2344H8.91745C8.883 47.5935 8.85938 46.9419 8.85938 46.2656C8.85938 45.6002 8.88398 44.9456 8.91942 44.2969H24.6635C24.697 43.6245 24.7452 42.967 24.8122 42.3281H9.08578C9.33877 40.0995 9.80339 38.0589 10.4482 36.3835C10.5712 36.4081 10.6982 36.4219 10.8281 36.4219H20.6719C21.7576 36.4219 22.6406 35.5389 22.6406 34.4531V32.4844H37.9132C35.8155 35.1215 34.4531 40.1832 34.4531 46.2656C34.4531 52.3481 35.8155 57.4097 37.9132 60.0469H13.7812C11.8529 60.0469 9.7463 56.1547 9.07889 50.2031ZM36.4219 46.2656C36.4219 44.1108 36.6089 42.1362 36.92 40.3869C39.9046 40.6478 42.3281 43.1796 42.3281 46.2656C42.3281 49.3516 39.9075 51.8854 36.921 52.1443C36.6089 50.3961 36.4219 48.4214 36.4219 46.2656ZM41.3438 60.0469C39.8741 60.0469 38.301 57.7877 37.3383 54.0826C41.2502 53.6268 44.2969 50.2976 44.2969 46.2656C44.2969 42.2336 41.2502 38.9045 37.3383 38.4487C38.301 34.7435 39.8741 32.4844 41.3438 32.4844C43.6718 32.4844 46.2656 38.1445 46.2656 46.2656C46.2656 54.3867 43.6718 60.0469 41.3438 60.0469Z" fill="black"/>
<path d="M50.2031 45.2812H54.1406V47.25H50.2031V45.2812Z" fill="black"/>
<path d="M56.1094 45.2812H62.0156V47.25H56.1094V45.2812Z" fill="black"/>
<path d="M50.0381 40.3742L60.8673 38.4043L61.2196 40.3406L50.3903 42.3105L50.0381 40.3742Z" fill="black"/>
<path d="M48.8496 36.4516L58.688 32.5078L59.4207 34.3357L49.5823 38.2795L48.8496 36.4516Z" fill="black"/>
<path d="M50.0396 52.1545L50.3918 50.2183L61.221 52.1882L60.8688 54.1245L50.0396 52.1545Z" fill="black"/>
<path d="M48.8599 55.9914L49.5906 54.1615L59.4396 58.0947L58.7089 59.9246L48.8599 55.9914Z" fill="black"/>
</svg>
