<svg width="63" height="63" viewBox="0 0 63 63" fill="none" xmlns="http://www.w3.org/2000/svg">
<path d="M45.2812 12.7969H14.7656C13.6799 12.7969 12.7969 13.6799 12.7969 14.7656V36.4219C12.7969 37.5076 13.6799 38.3906 14.7656 38.3906H45.2812V12.7969Z" fill="#E5B57A"/>
<path d="M57.0938 8.85938H53.3886L49.2552 6.79317L46.932 0.984375H5.15222L10.4806 9.86541L0.984375 4.16686V47.0197L10.4806 41.3211L5.15222 50.2031H25.5938V62.0156H37.4062V60.0469H39.5561C39.9637 61.1897 41.0465 62.0156 42.3281 62.0156C43.9563 62.0156 45.2812 60.6907 45.2812 59.0625V55.125C45.2812 53.4968 43.9563 52.1719 42.3281 52.1719C41.0465 52.1719 39.9637 52.9978 39.5561 54.1406H37.4062V50.2031H46.932L49.2552 44.3943L53.3886 42.3281H57.0938C59.8077 42.3281 62.0156 40.1202 62.0156 37.4062V13.7812C62.0156 11.0673 59.8077 8.85938 57.0938 8.85938ZM45.5992 2.95312L46.6052 5.46722L44.2969 4.31353V8.85938H13.7812C13.2694 8.85938 12.7851 8.95978 12.3204 9.10547L8.62903 2.95312H45.5992ZM44.2969 40.3594H13.7812C12.1531 40.3594 10.8281 39.0344 10.8281 37.4062V13.7812C10.8281 12.1531 12.1531 10.8281 13.7812 10.8281H44.2969V40.3594ZM2.95312 7.64564L9.42933 11.531C9.07692 12.2082 8.85938 12.9662 8.85938 13.7812V37.4062C8.85938 38.2213 9.07692 38.9793 9.42933 39.6565L2.95312 43.5419V7.64564ZM41.3438 55.125C41.3438 54.5816 41.7857 54.1406 42.3281 54.1406C42.8705 54.1406 43.3125 54.5816 43.3125 55.125V59.0625C43.3125 59.6059 42.8705 60.0469 42.3281 60.0469C41.7857 60.0469 41.3438 59.6059 41.3438 59.0625V55.125ZM39.375 56.1094V58.0781H37.4062V56.1094H39.375ZM35.4375 60.0469H27.5625V50.2031H35.4375V60.0469ZM45.5992 48.2344H8.62903L12.3204 42.082C12.7851 42.2277 13.2694 42.3281 13.7812 42.3281H44.2969V46.874L46.6043 45.7203L45.5992 48.2344ZM52.1719 40.7354L46.2656 43.6885V7.49897L52.1719 10.4521V40.7354ZM60.0469 37.4062C60.0469 39.0344 58.7219 40.3594 57.0938 40.3594H54.1406V10.8281H57.0938C58.7219 10.8281 60.0469 12.1531 60.0469 13.7812V37.4062Z" fill="black"/>
<path d="M17.7188 18.7031C18.2624 18.7031 18.7031 18.2624 18.7031 17.7188C18.7031 17.1751 18.2624 16.7344 17.7188 16.7344C17.1751 16.7344 16.7344 17.1751 16.7344 17.7188C16.7344 18.2624 17.1751 18.7031 17.7188 18.7031Z" fill="black"/>
<path d="M21.6562 18.7031C22.1999 18.7031 22.6406 18.2624 22.6406 17.7188C22.6406 17.1751 22.1999 16.7344 21.6562 16.7344C21.1126 16.7344 20.6719 17.1751 20.6719 17.7188C20.6719 18.2624 21.1126 18.7031 21.6562 18.7031Z" fill="black"/>
<path d="M25.5938 18.7031C26.1374 18.7031 26.5781 18.2624 26.5781 17.7188C26.5781 17.1751 26.1374 16.7344 25.5938 16.7344C25.0501 16.7344 24.6094 17.1751 24.6094 17.7188C24.6094 18.2624 25.0501 18.7031 25.5938 18.7031Z" fill="black"/>
<path d="M29.5312 18.7031C30.0749 18.7031 30.5156 18.2624 30.5156 17.7188C30.5156 17.1751 30.0749 16.7344 29.5312 16.7344C28.9876 16.7344 28.5469 17.1751 28.5469 17.7188C28.5469 18.2624 28.9876 18.7031 29.5312 18.7031Z" fill="black"/>
<path d="M33.4688 18.7031C34.0124 18.7031 34.4531 18.2624 34.4531 17.7188C34.4531 17.1751 34.0124 16.7344 33.4688 16.7344C32.9251 16.7344 32.4844 17.1751 32.4844 17.7188C32.4844 18.2624 32.9251 18.7031 33.4688 18.7031Z" fill="black"/>
<path d="M37.4062 18.7031C37.9499 18.7031 38.3906 18.2624 38.3906 17.7188C38.3906 17.1751 37.9499 16.7344 37.4062 16.7344C36.8626 16.7344 36.4219 17.1751 36.4219 17.7188C36.4219 18.2624 36.8626 18.7031 37.4062 18.7031Z" fill="black"/>
<path d="M17.7188 22.6406C18.2624 22.6406 18.7031 22.1999 18.7031 21.6562C18.7031 21.1126 18.2624 20.6719 17.7188 20.6719C17.1751 20.6719 16.7344 21.1126 16.7344 21.6562C16.7344 22.1999 17.1751 22.6406 17.7188 22.6406Z" fill="black"/>
<path d="M21.6562 22.6406C22.1999 22.6406 22.6406 22.1999 22.6406 21.6562C22.6406 21.1126 22.1999 20.6719 21.6562 20.6719C21.1126 20.6719 20.6719 21.1126 20.6719 21.6562C20.6719 22.1999 21.1126 22.6406 21.6562 22.6406Z" fill="black"/>
<path d="M25.5938 22.6406C26.1374 22.6406 26.5781 22.1999 26.5781 21.6562C26.5781 21.1126 26.1374 20.6719 25.5938 20.6719C25.0501 20.6719 24.6094 21.1126 24.6094 21.6562C24.6094 22.1999 25.0501 22.6406 25.5938 22.6406Z" fill="black"/>
<path d="M29.5312 22.6406C30.0749 22.6406 30.5156 22.1999 30.5156 21.6562C30.5156 21.1126 30.0749 20.6719 29.5312 20.6719C28.9876 20.6719 28.5469 21.1126 28.5469 21.6562C28.5469 22.1999 28.9876 22.6406 29.5312 22.6406Z" fill="black"/>
<path d="M33.4688 22.6406C34.0124 22.6406 34.4531 22.1999 34.4531 21.6562C34.4531 21.1126 34.0124 20.6719 33.4688 20.6719C32.9251 20.6719 32.4844 21.1126 32.4844 21.6562C32.4844 22.1999 32.9251 22.6406 33.4688 22.6406Z" fill="black"/>
<path d="M37.4062 22.6406C37.9499 22.6406 38.3906 22.1999 38.3906 21.6562C38.3906 21.1126 37.9499 20.6719 37.4062 20.6719C36.8626 20.6719 36.4219 21.1126 36.4219 21.6562C36.4219 22.1999 36.8626 22.6406 37.4062 22.6406Z" fill="black"/>
<path d="M17.7188 26.5781C18.2624 26.5781 18.7031 26.1374 18.7031 25.5938C18.7031 25.0501 18.2624 24.6094 17.7188 24.6094C17.1751 24.6094 16.7344 25.0501 16.7344 25.5938C16.7344 26.1374 17.1751 26.5781 17.7188 26.5781Z" fill="black"/>
<path d="M21.6562 26.5781C22.1999 26.5781 22.6406 26.1374 22.6406 25.5938C22.6406 25.0501 22.1999 24.6094 21.6562 24.6094C21.1126 24.6094 20.6719 25.0501 20.6719 25.5938C20.6719 26.1374 21.1126 26.5781 21.6562 26.5781Z" fill="black"/>
<path d="M25.5938 26.5781C26.1374 26.5781 26.5781 26.1374 26.5781 25.5938C26.5781 25.0501 26.1374 24.6094 25.5938 24.6094C25.0501 24.6094 24.6094 25.0501 24.6094 25.5938C24.6094 26.1374 25.0501 26.5781 25.5938 26.5781Z" fill="black"/>
<path d="M29.5312 26.5781C30.0749 26.5781 30.5156 26.1374 30.5156 25.5938C30.5156 25.0501 30.0749 24.6094 29.5312 24.6094C28.9876 24.6094 28.5469 25.0501 28.5469 25.5938C28.5469 26.1374 28.9876 26.5781 29.5312 26.5781Z" fill="black"/>
<path d="M33.4688 26.5781C34.0124 26.5781 34.4531 26.1374 34.4531 25.5938C34.4531 25.0501 34.0124 24.6094 33.4688 24.6094C32.9251 24.6094 32.4844 25.0501 32.4844 25.5938C32.4844 26.1374 32.9251 26.5781 33.4688 26.5781Z" fill="black"/>
<path d="M37.4062 26.5781C37.9499 26.5781 38.3906 26.1374 38.3906 25.5938C38.3906 25.0501 37.9499 24.6094 37.4062 24.6094C36.8626 24.6094 36.4219 25.0501 36.4219 25.5938C36.4219 26.1374 36.8626 26.5781 37.4062 26.5781Z" fill="black"/>
<path d="M17.7188 30.5156C18.2624 30.5156 18.7031 30.0749 18.7031 29.5312C18.7031 28.9876 18.2624 28.5469 17.7188 28.5469C17.1751 28.5469 16.7344 28.9876 16.7344 29.5312C16.7344 30.0749 17.1751 30.5156 17.7188 30.5156Z" fill="black"/>
<path d="M21.6562 30.5156C22.1999 30.5156 22.6406 30.0749 22.6406 29.5312C22.6406 28.9876 22.1999 28.5469 21.6562 28.5469C21.1126 28.5469 20.6719 28.9876 20.6719 29.5312C20.6719 30.0749 21.1126 30.5156 21.6562 30.5156Z" fill="black"/>
<path d="M25.5938 30.5156C26.1374 30.5156 26.5781 30.0749 26.5781 29.5312C26.5781 28.9876 26.1374 28.5469 25.5938 28.5469C25.0501 28.5469 24.6094 28.9876 24.6094 29.5312C24.6094 30.0749 25.0501 30.5156 25.5938 30.5156Z" fill="black"/>
<path d="M29.5312 30.5156C30.0749 30.5156 30.5156 30.0749 30.5156 29.5312C30.5156 28.9876 30.0749 28.5469 29.5312 28.5469C28.9876 28.5469 28.5469 28.9876 28.5469 29.5312C28.5469 30.0749 28.9876 30.5156 29.5312 30.5156Z" fill="black"/>
<path d="M33.4688 30.5156C34.0124 30.5156 34.4531 30.0749 34.4531 29.5312C34.4531 28.9876 34.0124 28.5469 33.4688 28.5469C32.9251 28.5469 32.4844 28.9876 32.4844 29.5312C32.4844 30.0749 32.9251 30.5156 33.4688 30.5156Z" fill="black"/>
<path d="M37.4062 30.5156C37.9499 30.5156 38.3906 30.0749 38.3906 29.5312C38.3906 28.9876 37.9499 28.5469 37.4062 28.5469C36.8626 28.5469 36.4219 28.9876 36.4219 29.5312C36.4219 30.0749 36.8626 30.5156 37.4062 30.5156Z" fill="black"/>
<path d="M17.7188 34.4531C18.2624 34.4531 18.7031 34.0124 18.7031 33.4688C18.7031 32.9251 18.2624 32.4844 17.7188 32.4844C17.1751 32.4844 16.7344 32.9251 16.7344 33.4688C16.7344 34.0124 17.1751 34.4531 17.7188 34.4531Z" fill="black"/>
<path d="M21.6562 34.4531C22.1999 34.4531 22.6406 34.0124 22.6406 33.4688C22.6406 32.9251 22.1999 32.4844 21.6562 32.4844C21.1126 32.4844 20.6719 32.9251 20.6719 33.4688C20.6719 34.0124 21.1126 34.4531 21.6562 34.4531Z" fill="black"/>
<path d="M25.5938 34.4531C26.1374 34.4531 26.5781 34.0124 26.5781 33.4688C26.5781 32.9251 26.1374 32.4844 25.5938 32.4844C25.0501 32.4844 24.6094 32.9251 24.6094 33.4688C24.6094 34.0124 25.0501 34.4531 25.5938 34.4531Z" fill="black"/>
<path d="M29.5312 34.4531C30.0749 34.4531 30.5156 34.0124 30.5156 33.4688C30.5156 32.9251 30.0749 32.4844 29.5312 32.4844C28.9876 32.4844 28.5469 32.9251 28.5469 33.4688C28.5469 34.0124 28.9876 34.4531 29.5312 34.4531Z" fill="black"/>
<path d="M33.4688 34.4531C34.0124 34.4531 34.4531 34.0124 34.4531 33.4688C34.4531 32.9251 34.0124 32.4844 33.4688 32.4844C32.9251 32.4844 32.4844 32.9251 32.4844 33.4688C32.4844 34.0124 32.9251 34.4531 33.4688 34.4531Z" fill="black"/>
<path d="M37.4062 34.4531C37.9499 34.4531 38.3906 34.0124 38.3906 33.4688C38.3906 32.9251 37.9499 32.4844 37.4062 32.4844C36.8626 32.4844 36.4219 32.9251 36.4219 33.4688C36.4219 34.0124 36.8626 34.4531 37.4062 34.4531Z" fill="black"/>
<path d="M41.3438 18.7031C41.8874 18.7031 42.3281 18.2624 42.3281 17.7188C42.3281 17.1751 41.8874 16.7344 41.3438 16.7344C40.8001 16.7344 40.3594 17.1751 40.3594 17.7188C40.3594 18.2624 40.8001 18.7031 41.3438 18.7031Z" fill="black"/>
<path d="M41.3438 22.6406C41.8874 22.6406 42.3281 22.1999 42.3281 21.6562C42.3281 21.1126 41.8874 20.6719 41.3438 20.6719C40.8001 20.6719 40.3594 21.1126 40.3594 21.6562C40.3594 22.1999 40.8001 22.6406 41.3438 22.6406Z" fill="black"/>
<path d="M41.3438 26.5781C41.8874 26.5781 42.3281 26.1374 42.3281 25.5938C42.3281 25.0501 41.8874 24.6094 41.3438 24.6094C40.8001 24.6094 40.3594 25.0501 40.3594 25.5938C40.3594 26.1374 40.8001 26.5781 41.3438 26.5781Z" fill="black"/>
<path d="M41.3438 30.5156C41.8874 30.5156 42.3281 30.0749 42.3281 29.5312C42.3281 28.9876 41.8874 28.5469 41.3438 28.5469C40.8001 28.5469 40.3594 28.9876 40.3594 29.5312C40.3594 30.0749 40.8001 30.5156 41.3438 30.5156Z" fill="black"/>
<path d="M41.3438 34.4531C41.8874 34.4531 42.3281 34.0124 42.3281 33.4688C42.3281 32.9251 41.8874 32.4844 41.3438 32.4844C40.8001 32.4844 40.3594 32.9251 40.3594 33.4688C40.3594 34.0124 40.8001 34.4531 41.3438 34.4531Z" fill="black"/>
<path d="M12.7969 4.92188H14.7656V6.89062H12.7969V4.92188Z" fill="black"/>
<path d="M16.7344 4.92188H18.7031V6.89062H16.7344V4.92188Z" fill="black"/>
<path d="M20.6719 4.92188H22.6406V6.89062H20.6719V4.92188Z" fill="black"/>
<path d="M40.3594 44.2969H42.3281V46.2656H40.3594V44.2969Z" fill="black"/>
<path d="M36.4219 44.2969H38.3906V46.2656H36.4219V44.2969Z" fill="black"/>
<path d="M32.4844 44.2969H34.4531V46.2656H32.4844V44.2969Z" fill="black"/>
<path d="M48.2344 10.8281H50.2031V12.7969H48.2344V10.8281Z" fill="black"/>
<path d="M48.2344 14.7656H50.2031V16.7344H48.2344V14.7656Z" fill="black"/>
<path d="M48.2344 18.7031H50.2031V20.6719H48.2344V18.7031Z" fill="black"/>
<path d="M4.92188 37.4062H6.89062V39.375H4.92188V37.4062Z" fill="black"/>
<path d="M4.92188 33.4688H6.89062V35.4375H4.92188V33.4688Z" fill="black"/>
<path d="M4.92188 29.5312H6.89062V31.5H4.92188V29.5312Z" fill="black"/>
<path d="M56.1094 36.4219H58.0781V38.3906H56.1094V36.4219Z" fill="black"/>
<path d="M56.1094 32.4844H58.0781V34.4531H56.1094V32.4844Z" fill="black"/>
<path d="M56.1094 28.5469H58.0781V30.5156H56.1094V28.5469Z" fill="black"/>
</svg>
