<svg width="63" height="63" viewBox="0 0 63 63" fill="none" xmlns="http://www.w3.org/2000/svg">
<path d="M29.5312 19.6875H29.549C29.1464 19.3863 28.7644 19.0614 28.413 18.7031H24.6094V44.2969H30.3512L29.5312 19.6875Z" fill="#E5B57A"/>
<path d="M55.1252 18.7031H42.4622C42.1107 19.0614 41.7288 19.3863 41.3262 19.6875H41.3439L40.5239 44.2969H55.1252C56.7533 44.2969 58.0783 42.9719 58.0783 41.3438V21.6562C58.0783 20.0281 56.7533 18.7031 55.1252 18.7031Z" fill="#E5B57A"/>
<path d="M32.4844 30.5156V36.4219C32.4844 37.5076 33.3674 38.3906 34.4531 38.3906H36.4219C37.5076 38.3906 38.3906 37.5076 38.3906 36.4219V30.5156C38.3906 29.4299 37.5076 28.5469 36.4219 28.5469H34.4531C33.3674 28.5469 32.4844 29.4299 32.4844 30.5156ZM34.4531 36.4219V34.4531H36.4229V36.4219H34.4531ZM36.4219 32.4844H34.4531V30.5156H36.4219V32.4844Z" fill="black"/>
<path d="M44.2969 32.4844H46.2656V34.4531H44.2969V32.4844Z" fill="black"/>
<path d="M48.2344 32.4844H50.2031V34.4531H48.2344V32.4844Z" fill="black"/>
<path d="M52.1719 32.4844H54.1406V34.4531H52.1719V32.4844Z" fill="black"/>
<path d="M55.1248 14.7656H45.8461C46.1129 13.8255 46.2654 12.8372 46.2654 11.8125C46.2654 5.84227 41.4076 0.984375 35.4373 0.984375C29.4671 0.984375 24.6092 5.84227 24.6092 11.8125C24.6092 12.8372 24.7618 13.8255 25.0285 14.7656H0.984191L4.60669 19.595L0.57666 23.625L4.51416 27.5625L0.57666 31.5L4.51416 35.4375L0.57666 39.375L4.60669 43.405L0.984191 48.2344H29.4986L29.5005 48.2993C29.535 49.3664 30.3993 50.2031 31.4673 50.2031H34.4529V56.1094C34.4529 59.3667 37.1019 62.0156 40.3592 62.0156C43.6165 62.0156 46.2654 59.3667 46.2654 56.1094V48.2344H52.1717V52.353C51.0288 52.7605 50.2029 53.8433 50.2029 55.125C50.2029 56.7532 51.5279 58.0781 53.1561 58.0781C54.7842 58.0781 56.1092 56.7532 56.1092 55.125C56.1092 53.8433 55.2833 52.7605 54.1404 52.353V48.2344H55.1248C58.9235 48.2344 62.0154 45.1434 62.0154 41.3438V21.6562C62.0154 17.8566 58.9235 14.7656 55.1248 14.7656ZM39.5392 44.2969H31.3364L30.5755 21.4741C32.0393 22.2144 33.6881 22.6406 35.4373 22.6406C37.1866 22.6406 38.8354 22.2144 40.2991 21.4741L39.5392 44.2969ZM26.5779 11.8125C26.5779 11.4798 26.5996 11.152 26.636 10.8281H44.2386C44.275 11.152 44.2967 11.4798 44.2967 11.8125C44.2967 12.1452 44.275 12.473 44.2386 12.7969H26.636C26.5996 12.473 26.5779 12.1452 26.5779 11.8125ZM42.7985 6.89062C43.205 7.497 43.5308 8.15948 43.7799 8.85938H42.3279V6.89062H42.7985ZM40.3592 4.92188H38.3904V3.46992C39.0903 3.71798 39.7528 4.04381 40.3592 4.45134V4.92188ZM40.3592 6.89062V8.85938H38.3904V6.89062H40.3592ZM36.4217 8.85938H34.4529V6.89062H36.4217V8.85938ZM32.4842 8.85938H30.5154V6.89062H32.4842V8.85938ZM30.5154 4.92188V4.45134C31.1218 4.0448 31.7843 3.71897 32.4842 3.46992V4.92188H30.5154ZM28.5467 6.89062V8.85938H27.0947C27.3428 8.15948 27.6686 7.497 28.0762 6.89062H28.5467ZM32.4842 14.7656V16.7344H30.5154V14.7656H32.4842ZM36.4217 14.7656V16.7344H34.4529V14.7656H36.4217ZM30.5154 18.7031H32.4842V20.1551C31.7843 19.907 31.1218 19.5812 30.5154 19.1737V18.7031ZM34.4529 18.7031H36.4217V20.6138C36.0978 20.6502 35.77 20.6719 35.4373 20.6719C35.1046 20.6719 34.7768 20.6502 34.4529 20.6138V18.7031ZM38.3904 18.7031H40.3592V19.1737C39.7528 19.5802 39.0903 19.906 38.3904 20.1551V18.7031ZM38.3904 16.7344V14.7656H40.3592V16.7344H38.3904ZM28.5467 14.7656V16.7344H28.0762C27.6696 16.128 27.3438 15.4655 27.0947 14.7656H28.5467ZM42.7985 16.7344H42.3279V14.7656H43.7799C43.5318 15.4655 43.206 16.128 42.7985 16.7344ZM36.4217 3.0112V4.92188H34.4529V3.0112C34.7768 2.97478 35.1046 2.95312 35.4373 2.95312C35.77 2.95312 36.0978 2.97478 36.4217 3.0112ZM3.36047 39.375L7.29797 35.4375L3.36047 31.5L7.29797 27.5625L3.36047 23.625L7.20544 19.78L4.92169 16.7344H20.6717V46.2656H4.92169L7.20544 43.22L3.36047 39.375ZM22.6404 46.2656V16.7344H25.8042C26.4844 18.0603 27.4216 19.2317 28.5624 20.1718L29.4326 46.2656H22.6404ZM31.4014 46.2656H39.4733L39.4073 48.2344H31.4673L31.4014 46.2656ZM44.2967 56.1094C44.2967 58.2809 42.5307 60.0469 40.3592 60.0469C38.1877 60.0469 36.4217 58.2809 36.4217 56.1094V50.2031H39.4073C40.4753 50.2031 41.3396 49.3664 41.3741 48.2993L41.3761 48.2344H44.2967V56.1094ZM46.2654 46.2656V41.3438C46.2654 39.7156 47.5904 38.3906 49.2186 38.3906C50.8467 38.3906 52.1717 39.7156 52.1717 41.3438V46.2656H46.2654ZM53.1561 56.1094C52.6127 56.1094 52.1717 55.6674 52.1717 55.125C52.1717 54.5826 52.6127 54.1406 53.1561 54.1406C53.6994 54.1406 54.1404 54.5826 54.1404 55.125C54.1404 55.6674 53.6994 56.1094 53.1561 56.1094ZM60.0467 41.3438C60.0467 44.0577 57.8387 46.2656 55.1248 46.2656H54.1404V41.3438C54.1404 38.6298 51.9325 36.4219 49.2186 36.4219C46.5046 36.4219 44.2967 38.6298 44.2967 41.3438V46.2656H41.442L42.3122 20.1718C43.4531 19.2327 44.3902 18.0603 45.0704 16.7344H55.1248C57.8387 16.7344 60.0467 18.9423 60.0467 21.6562V41.3438Z" fill="black"/>
<path d="M18.7031 18.7031H8.85938V36.4219H18.7031V18.7031ZM16.7344 20.6719V22.6406H10.8281V20.6719H16.7344ZM10.8281 26.5781V24.6094H16.7344V26.5781H10.8281ZM16.7344 28.5469V30.5156H10.8281V28.5469H16.7344ZM10.8281 34.4531V32.4844H16.7344V34.4531H10.8281Z" fill="black"/>
<path d="M8.85938 38.3906H10.8281V42.3281H8.85938V38.3906Z" fill="black"/>
<path d="M12.7969 38.3906H14.7656V44.2969H12.7969V38.3906Z" fill="black"/>
<path d="M16.7344 38.3906H18.7031V40.3594H16.7344V38.3906Z" fill="black"/>
<path d="M16.7344 42.3281H18.7031V44.2969H16.7344V42.3281Z" fill="black"/>
</svg>
