<svg width="50" height="50" viewBox="0 0 50 50" fill="none" xmlns="http://www.w3.org/2000/svg">
<g clip-path="url(#clip0)">
<path d="M43.6241 4.92553V0.27124H40.5213V4.92553H9.49266V0.27124H6.3898V4.92553H0.184082V49.917H39.6121L49.8298 39.6993V4.92553H43.6241ZM40.5213 44.6204V40.6084H44.5332L40.5213 44.6204ZM46.727 12.6827H18.8012V15.7855H46.727V37.5056H37.4184V46.8141H3.28694V15.7855H9.49266V12.6827H3.28694V8.02839H46.727V12.6827Z" fill="white"/>
<path d="M15.6986 12.6826H12.5957V15.7855H15.6986V12.6826Z" fill="white"/>
<path d="M9.49268 34.4026H21.9041V21.9912H9.49268V34.4026ZM12.5955 25.0941H18.8013V31.2998H12.5955V25.0941Z" fill="white"/>
<path d="M28.1097 23.5427H25.0068V26.6456H28.1097V23.5427Z" fill="white"/>
<path d="M40.5213 23.5427H37.4185V26.6456H40.5213V23.5427Z" fill="white"/>
<path d="M34.3157 23.5427H31.2129V26.6456H34.3157V23.5427Z" fill="white"/>
<path d="M28.1097 29.7483H25.0068V32.8511H28.1097V29.7483Z" fill="white"/>
<path d="M40.5213 29.7483H37.4185V32.8511H40.5213V29.7483Z" fill="white"/>
<path d="M34.3157 29.7483H31.2129V32.8511H34.3157V29.7483Z" fill="white"/>
<path d="M12.5955 37.5056H9.49268V40.6085H12.5955V37.5056Z" fill="white"/>
<path d="M25.0072 37.5056H21.9043V40.6085H25.0072V37.5056Z" fill="white"/>
<path d="M31.2127 37.5056H28.1099V40.6085H31.2127V37.5056Z" fill="white"/>
<path d="M18.8011 37.5056H15.6982V40.6085H18.8011V37.5056Z" fill="white"/>
</g>
<defs>
<clipPath id="clip0">
<rect width="49.6457" height="49.6457" fill="white" transform="translate(0.184082 0.27124)"/>
</clipPath>
</defs>
</svg>
