<svg width="50" height="51" viewBox="0 0 50 51" fill="none" xmlns="http://www.w3.org/2000/svg">
<g clip-path="url(#clip0)">
<path d="M48.5355 21.8976C48.1645 21.4029 47.7246 20.9641 47.2291 20.5943H47.2322C46.0946 19.7368 45.6173 18.2577 46.0391 16.8971C47.0934 13.483 45.1804 9.86072 41.7663 8.80648C41.175 8.62389 40.5606 8.52711 39.9417 8.51897C38.5189 8.49851 37.2619 7.58729 36.7999 6.24136C35.646 2.85879 31.9684 1.05207 28.5858 2.206C28.0029 2.40488 27.4513 2.6859 26.9479 3.04061C25.7845 3.85932 24.2325 3.85932 23.0691 3.04061C20.1475 0.982058 16.1103 1.68179 14.0517 4.60336C13.697 5.10682 13.4159 5.65838 13.2171 6.24126C12.7548 7.59078 11.4939 8.50384 10.0675 8.52197C6.49472 8.57375 3.64044 11.5121 3.69232 15.0849C3.70134 15.7039 3.79908 16.3183 3.98255 16.9094C4.39922 18.2728 3.91496 19.751 2.77237 20.6035C-0.0861729 22.7474 -0.665465 26.8026 1.47842 29.6612C1.84933 30.1558 2.28927 30.5947 2.78479 30.9645C3.92242 31.822 4.39971 33.301 3.97789 34.6617C2.92364 38.0758 4.83665 41.698 8.25073 42.7523C8.84204 42.9349 9.45644 43.0317 10.0753 43.0398C11.4981 43.0603 12.7551 43.9715 13.2171 45.3174C14.37 48.7004 18.0471 50.5081 21.4301 49.3552C22.0146 49.156 22.5676 48.8741 23.0722 48.5182C24.2356 47.6994 25.7877 47.6994 26.951 48.5182C28.0354 49.2896 29.3328 49.705 30.6637 49.7066C31.3488 49.7057 32.0295 49.5968 32.6807 49.3839C34.6221 48.7603 36.1513 47.2507 36.7999 45.3174C37.2618 43.969 38.5211 43.0561 39.9464 43.0367C43.5192 42.9849 46.3735 40.0466 46.3216 36.4737C46.3126 35.8548 46.2148 35.2404 46.0314 34.6493C45.615 33.2913 46.0938 31.8181 47.2291 30.9645L47.2415 30.9551C50.1001 28.8114 50.6794 24.7561 48.5355 21.8976ZM46.0546 27.7995C45.8632 28.0547 45.6365 28.2814 45.3813 28.4728H45.3828L45.3704 28.4821C43.1872 30.1262 42.2688 32.9624 43.0742 35.5741C43.6219 37.3519 42.6247 39.2371 40.8468 39.7847C40.5384 39.8798 40.2179 39.9299 39.8952 39.9338C37.1621 39.9779 34.7502 41.7309 33.8645 44.3168C33.2636 46.0755 31.3507 47.0141 29.5919 46.4131C29.2905 46.3101 29.0052 46.1647 28.7445 45.9815C26.5075 44.4082 23.5235 44.4082 21.2864 45.9815C19.7645 47.0498 17.6648 46.682 16.5965 45.1602C16.4141 44.9002 16.2693 44.6157 16.1665 44.3152C15.2772 41.7229 12.8545 39.9691 10.1141 39.9338C8.2549 39.907 6.76933 38.3781 6.7961 36.5189C6.80075 36.1947 6.85224 35.8727 6.94902 35.5632C7.7495 32.9484 6.82422 30.1125 4.63573 28.4728C3.14822 27.3572 2.84665 25.2469 3.96228 23.7594C4.1568 23.5 4.38778 23.2701 4.64814 23.0767C6.83139 21.4327 7.74979 18.5965 6.94436 15.9848C6.39668 14.207 7.39391 12.3218 9.17174 11.7741C9.4802 11.6791 9.80068 11.629 10.1234 11.6251C12.8565 11.581 15.2684 9.82795 16.1541 7.24208C16.4908 6.23525 17.2872 5.44932 18.2983 5.12583C18.6375 5.01548 18.9919 4.95885 19.3486 4.95827C20.0418 4.95992 20.7172 5.17684 21.2818 5.57887C23.5192 7.15132 26.5025 7.15132 28.7399 5.57887C30.2618 4.51056 32.3616 4.87837 33.4298 6.4002C33.6123 6.66017 33.757 6.94468 33.8598 7.24518C34.7485 9.83377 37.1663 11.5862 39.9029 11.6251C41.7621 11.6518 43.2477 13.1807 43.2209 15.0399C43.2163 15.3642 43.1648 15.6861 43.068 15.9957C42.2675 18.6104 43.1928 21.4464 45.3813 23.086C46.8688 24.2016 47.1703 26.312 46.0546 27.7995Z" fill="white"/>
<path d="M34.6978 13.6622C33.7998 12.9413 32.8247 12.3221 31.7903 11.8159L30.439 14.6086C31.2667 15.0126 32.0472 15.5069 32.7662 16.0826L34.6978 13.6622Z" fill="white"/>
<path d="M38.9719 18.9978C38.4679 17.9644 37.8514 16.9898 37.1334 16.0918L34.71 18.0312C35.2846 18.7503 35.7779 19.5308 36.1808 20.3584L38.9719 18.9978Z" fill="white"/>
<path d="M37.098 22.9463C37.3127 23.8754 37.421 24.8259 37.4207 25.7794C37.4121 32.6258 31.8549 38.1688 25.0085 38.1602C18.1621 38.1515 12.6191 32.5943 12.6277 25.7479C12.6363 18.9016 18.1935 13.3584 25.0399 13.3671C25.9831 13.3683 26.9231 13.4772 27.8417 13.6916L28.5461 10.6693C20.2112 8.72583 11.8791 13.9071 9.93564 22.2419C7.99219 30.5768 13.1734 38.909 21.5083 40.8524C29.8432 42.7959 38.1753 37.6146 40.1188 29.2797C40.6585 26.9648 40.6585 24.5568 40.1188 22.2419L37.098 22.9463Z" fill="white"/>
<path d="M19.9007 33.0827L32.313 20.6704L30.1189 18.4763L17.7066 30.8886L19.9007 33.0827Z" fill="white"/>
<path d="M21.9053 19.5732H18.8022V22.6762H21.9053V19.5732Z" fill="white"/>
<path d="M31.2143 28.8823H28.1113V31.9853H31.2143V28.8823Z" fill="white"/>
</g>
<defs>
<clipPath id="clip0">
<rect width="49.6457" height="49.6457" fill="white" transform="translate(0.184082 0.959473)"/>
</clipPath>
</defs>
</svg>
