<svg width="50" height="50" viewBox="0 0 50 50" fill="none" xmlns="http://www.w3.org/2000/svg">
<g clip-path="url(#clip0)">
<path d="M15.6294 18.765V23.4503H34.3704V18.765C34.3684 15.3506 32.5094 12.2076 29.518 10.5612C31.9007 8.06589 31.8093 4.11154 29.314 1.7289C26.8187 -0.653746 22.8644 -0.562383 20.4817 1.9329C18.1766 4.34707 18.1766 8.14691 20.4817 10.5611C17.4904 12.2075 15.6313 15.3506 15.6294 18.765ZM24.9999 3.14755C26.7249 3.14755 28.1234 4.546 28.1234 6.27105C28.1234 7.9961 26.7249 9.39455 24.9999 9.39455C23.2748 9.39455 21.8764 7.9961 21.8764 6.27105C21.8764 4.546 23.2748 3.14755 24.9999 3.14755ZM18.7529 18.765C18.7529 15.3149 21.5498 12.5181 24.9999 12.5181C28.45 12.5181 31.2469 15.3149 31.2469 18.765V20.3268H18.7529V18.765Z" fill="white"/>
<path d="M13.9005 37.111C16.2831 34.6157 16.1917 30.6613 13.6964 28.2787C11.2011 25.896 7.24672 25.9874 4.86408 28.4828C2.55893 30.897 2.55893 34.6968 4.86408 37.111C1.87274 38.7573 0.0136709 41.9004 0.0117188 45.3148V50.0001H18.7527V45.3148C18.7509 41.9004 16.8918 38.7572 13.9005 37.111ZM9.38232 29.6973C11.1074 29.6973 12.5058 31.0958 12.5058 32.8208C12.5058 34.5459 11.1074 35.9443 9.38232 35.9443C7.65726 35.9443 6.25882 34.5459 6.25882 32.8208C6.25882 31.0957 7.65726 29.6973 9.38232 29.6973ZM15.6293 46.8766H3.13532V45.3148C3.13532 41.8647 5.93221 39.0678 9.38232 39.0678C12.8324 39.0678 15.6293 41.8647 15.6293 45.3148V46.8766Z" fill="white"/>
<path d="M45.1357 37.111C47.5184 34.6157 47.427 30.6613 44.9317 28.2787C42.4364 25.896 38.4821 25.9874 36.0994 28.4828C33.7943 30.897 33.7943 34.6968 36.0994 37.111C33.1081 38.7573 31.249 41.9004 31.2471 45.3148V50.0001H49.9881V45.3148C49.9861 41.9004 48.1271 38.7572 45.1357 37.111ZM40.6176 29.6973C42.3426 29.6973 43.7411 31.0958 43.7411 32.8208C43.7411 34.5459 42.3426 35.9443 40.6176 35.9443C38.8925 35.9443 37.4941 34.5459 37.4941 32.8208C37.4941 31.0957 38.8925 29.6973 40.6176 29.6973ZM46.8646 46.8766H34.3706V45.3148C34.3706 41.8647 37.1675 39.0678 40.6176 39.0678C44.0677 39.0678 46.8646 41.8647 46.8646 45.3148V46.8766Z" fill="white"/>
<path d="M43.741 25.0121H46.8645C46.8784 16.8524 42.3363 9.36738 35.092 5.61206L33.6489 8.3826C39.8586 11.6018 43.7522 18.0176 43.741 25.0121Z" fill="white"/>
<path d="M16.3508 8.3826L14.9078 5.61206C7.66348 9.36729 3.12133 16.8524 3.13529 25.0121H6.25878C6.24746 18.0176 10.1411 11.6018 16.3508 8.3826Z" fill="white"/>
<path d="M22.1168 43.5312L21.6357 46.6188C23.8652 46.9624 26.1343 46.9624 28.3638 46.6188L27.8828 43.5312C25.9719 43.8249 24.0276 43.8249 22.1168 43.5312Z" fill="white"/>
<path d="M26.5615 26.574H23.438V29.6975H26.5615V26.574Z" fill="white"/>
<path d="M21.8764 32.8208H18.7529V35.9443H21.8764V32.8208Z" fill="white"/>
<path d="M31.2465 32.8208H28.123V35.9443H31.2465V32.8208Z" fill="white"/>
</g>
<defs>
<clipPath id="clip0">
<rect width="50" height="50" fill="white"/>
</clipPath>
</defs>
</svg>
