<svg width="24" height="24" viewBox="0 0 24 24" fill="none" xmlns="http://www.w3.org/2000/svg">
<g clip-path="url(#clip0)">
<path d="M12.0042 5.83813C8.60119 5.83813 5.84619 8.59613 5.84619 11.9961C5.84619 15.3991 8.60419 18.1541 12.0042 18.1541C15.4072 18.1541 18.1622 15.3961 18.1622 11.9961C18.1622 8.59313 15.4042 5.83813 12.0042 5.83813ZM12.0042 15.9931C9.79519 15.9931 8.00719 14.2041 8.00719 11.9961C8.00719 9.78813 9.79619 7.99913 12.0042 7.99913C14.2122 7.99913 16.0012 9.78813 16.0012 11.9961C16.0022 14.2041 14.2132 15.9931 12.0042 15.9931Z" fill="white"/>
<path d="M16.9482 0.0758749C14.7402 -0.0271251 9.27123 -0.0221251 7.06123 0.0758749C5.11923 0.166875 3.40623 0.635875 2.02523 2.01688C-0.282773 4.32488 0.0122273 7.43488 0.0122273 11.9959C0.0122273 16.6639 -0.247773 19.7019 2.02523 21.9749C4.34223 24.2909 7.49723 23.9879 12.0042 23.9879C16.6282 23.9879 18.2242 23.9909 19.8592 23.3579C22.0822 22.4949 23.7602 20.5079 23.9242 16.9389C24.0282 14.7299 24.0222 9.26188 23.9242 7.05188C23.7262 2.83888 21.4652 0.283875 16.9482 0.0758749ZM20.4432 20.4479C18.9302 21.9609 16.8312 21.8259 11.9752 21.8259C6.97523 21.8259 4.97023 21.8999 3.50723 20.4329C1.82223 18.7559 2.12723 16.0629 2.12723 11.9799C2.12723 6.45488 1.56023 2.47588 7.10523 2.19187C8.37923 2.14687 8.75423 2.13188 11.9612 2.13188L12.0062 2.16188C17.3352 2.16188 21.5162 1.60387 21.7672 7.14788C21.8242 8.41288 21.8372 8.79288 21.8372 11.9949C21.8362 16.9369 21.9302 18.9539 20.4432 20.4479Z" fill="white"/>
<path d="M18.4058 7.034C19.2005 7.034 19.8448 6.38974 19.8448 5.595C19.8448 4.80027 19.2005 4.15601 18.4058 4.15601C17.6111 4.15601 16.9668 4.80027 16.9668 5.595C16.9668 6.38974 17.6111 7.034 18.4058 7.034Z" fill="white"/>
</g>
<defs>
<clipPath id="clip0">
<rect width="24" height="24" fill="white"/>
</clipPath>
</defs>
</svg>
