<svg width="35" height="55" viewBox="0 0 35 55" fill="none" xmlns="http://www.w3.org/2000/svg">
<path d="M3.75 24.0625H0.3125C0.31293 25.3346 0.454189 26.6027 0.733594 27.8438L4.09375 27.0909C3.8672 26.0974 3.75183 25.0816 3.75 24.0625Z" fill="white"/>
<path d="M5.08398 29.9716L1.99023 31.4548C2.5412 32.604 3.21731 33.6888 4.00633 34.6895L6.70477 32.56C6.07033 31.7599 5.52667 30.8917 5.08398 29.9716Z" fill="white"/>
<path d="M34.6875 24.0625H31.25C31.2464 31.6564 25.0874 37.8096 17.4936 37.8061C14.3414 37.8046 11.2854 36.7201 8.8375 34.7342L6.67188 37.4C9.27782 39.512 12.444 40.8167 15.7812 41.1538V51.5625H7.1875V55H27.8125V51.5625H19.2187V41.1623C27.9958 40.2698 34.6763 32.8847 34.6875 24.0625Z" fill="white"/>
<path d="M17.5 34.375C23.193 34.3693 27.8068 29.7555 27.8125 24.0625V10.3125C27.8125 4.6171 23.1954 0 17.5 0C11.8046 0 7.1875 4.6171 7.1875 10.3125V24.0625C7.19319 29.7555 11.807 34.3693 17.5 34.375ZM10.625 10.3125C10.625 6.51557 13.7031 3.4375 17.5 3.4375C21.2969 3.4375 24.375 6.51557 24.375 10.3125V24.0625C24.375 27.8594 21.2969 30.9375 17.5 30.9375C13.7031 30.9375 10.625 27.8594 10.625 24.0625V10.3125Z" fill="white"/>
</svg>
