<svg width="50" height="50" viewBox="0 0 50 50" fill="none" xmlns="http://www.w3.org/2000/svg">
<g clip-path="url(#clip0)">
<path d="M25.0068 37.4548C21.5812 37.4548 18.8042 40.2319 18.8042 43.6575C18.8042 47.0831 21.5812 49.8601 25.0068 49.8601C28.4324 49.8601 31.2094 47.0831 31.2094 43.6575C31.2094 40.2319 28.4324 37.4548 25.0068 37.4548ZM25.0068 46.7588C23.294 46.7588 21.9055 45.3703 21.9055 43.6575C21.9055 41.9447 23.294 40.5561 25.0068 40.5561C26.7196 40.5561 28.1081 41.9447 28.1081 43.6575C28.1081 45.3703 26.7196 46.7588 25.0068 46.7588Z" fill="white"/>
<path d="M6.39892 37.4548C2.97332 37.4548 0.196289 40.2319 0.196289 43.6575C0.196289 47.0831 2.97332 49.8601 6.39892 49.8601C9.82451 49.8601 12.6015 47.0831 12.6015 43.6575C12.6015 40.2319 9.82451 37.4548 6.39892 37.4548ZM6.39892 46.7588C4.68612 46.7588 3.2976 45.3703 3.2976 43.6575C3.2976 41.9447 4.68612 40.5561 6.39892 40.5561C8.11172 40.5561 9.50023 41.9447 9.50023 43.6575C9.50023 45.3703 8.11172 46.7588 6.39892 46.7588Z" fill="white"/>
<path d="M43.6147 37.4548C40.1891 37.4548 37.4121 40.2319 37.4121 43.6575C37.4121 47.0831 40.1891 49.8601 43.6147 49.8601C47.0403 49.8601 49.8174 47.0831 49.8174 43.6575C49.8174 40.2319 47.0403 37.4548 43.6147 37.4548ZM43.6147 46.7588C41.9019 46.7588 40.5134 45.3703 40.5134 43.6575C40.5134 41.9447 41.9019 40.5561 43.6147 40.5561C45.3275 40.5561 46.7161 41.9447 46.7161 43.6575C46.7161 45.3703 45.3275 46.7588 43.6147 46.7588Z" fill="white"/>
<path d="M7.94946 21.9483H23.456V28.151H26.5573V21.9483H42.0639V28.151H45.1652V18.847H26.5573V12.4242C29.8742 11.5677 31.8687 8.18469 31.0124 4.86784C30.1559 1.55098 26.7729 -0.443553 23.456 0.412798C20.1392 1.26925 18.1446 4.6523 19.001 7.96915C19.5651 10.1539 21.2712 11.86 23.456 12.4242V18.847H4.84814V28.151H7.94946V21.9483ZM21.9054 6.44175C21.9054 4.72896 23.2939 3.34044 25.0067 3.34044C26.7195 3.34044 28.108 4.72896 28.108 6.44175C28.108 8.15455 26.7195 9.54307 25.0067 9.54307C23.2939 9.54307 21.9054 8.15455 21.9054 6.44175Z" fill="white"/>
<path d="M7.94946 31.2522H4.84814V34.3535H7.94946V31.2522Z" fill="white"/>
<path d="M26.5574 31.2522H23.4561V34.3535H26.5574V31.2522Z" fill="white"/>
<path d="M45.1653 31.2522H42.064V34.3535H45.1653V31.2522Z" fill="white"/>
</g>
<defs>
<clipPath id="clip0">
<rect width="49.6457" height="49.6457" fill="white" transform="translate(0.184082 0.2146)"/>
</clipPath>
</defs>
</svg>
