<svg width="90" height="90" viewBox="0 0 90 90" fill="none" xmlns="http://www.w3.org/2000/svg">
<path d="M84.375 23.9062V25.3125C84.375 25.3125 77.9175 25.3125 73.125 25.3125V30.9375H74.063C76.6519 30.9375 78.75 33.0356 78.75 35.6245C78.75 37.0997 78.0553 38.4891 76.8755 39.375L73.125 42.1875V49.3144L75.7434 48.3328C81.7481 46.0814 85.7812 40.2609 85.7812 33.8484V23.9062H84.375Z" fill="#E5B57A"/>
<path d="M61.335 47.8125H59.0625C55.9561 47.8125 53.4375 45.2939 53.4375 42.1875V38.8378C53.4375 38.3048 53.1366 37.8183 52.6598 37.5806L52.3139 37.4063C51.2789 36.8888 50.625 35.8313 50.625 34.6753C50.625 34.072 50.8036 33.4828 51.1383 32.9808L52.965 30.24C53.273 29.7773 53.4375 29.2345 53.4375 28.6791V26.7188H32.3438V49.2188H61.8286L61.335 47.8125Z" fill="#E5B57A"/>
<path d="M59.0625 32.3438C59.8392 32.3438 60.4688 31.7142 60.4688 30.9375C60.4688 30.1608 59.8392 29.5312 59.0625 29.5312C58.2858 29.5312 57.6562 30.1608 57.6562 30.9375C57.6562 31.7142 58.2858 32.3438 59.0625 32.3438Z" fill="white"/>
<path d="M74.5312 52.4166V52.0312V50.625V42.8906L77.7192 40.5C79.245 39.3539 80.1562 37.5314 80.1562 35.6245C80.1562 32.4225 77.6728 29.79 74.5312 29.5495V26.7188H85.7812V19.6875C85.7812 12.7083 80.1028 7.03125 73.125 7.03125H61.875C55.3711 7.03125 49.9978 11.9616 49.2961 18.2812H47.8125C47.3175 18.2812 46.8478 18.3825 46.4062 18.54V14.6855C48.0797 13.7109 49.2188 11.9166 49.2188 9.84375C49.2188 6.74156 46.6959 4.21875 43.5938 4.21875H32.9906C31.4437 2.4975 29.2092 1.40625 26.7188 1.40625H15.4688C10.8155 1.40625 7.03125 5.19047 7.03125 9.84375C7.03125 14.497 10.8155 18.2812 15.4688 18.2812H26.7188C29.2092 18.2812 31.4437 17.19 32.9906 15.4688H35.1562V21.0938H30.9375C28.6116 21.0938 26.7188 22.9866 26.7188 25.3125V26.7188H25.3125C23.2875 26.7188 21.5944 28.1531 21.1894 30.0586L9.84375 24.4392V23.9062C9.84375 22.3552 8.58234 21.0938 7.03125 21.0938H4.21875C2.66766 21.0938 1.40625 22.3552 1.40625 23.9062V52.0312C1.40625 53.5823 2.66766 54.8438 4.21875 54.8438H7.03125C8.58234 54.8438 9.84375 53.5823 9.84375 52.0312V51.4898L21.1725 45.772C21.5367 47.7309 23.2509 49.2188 25.3125 49.2188H26.7188V50.625C26.7188 52.6233 28.1194 54.2939 29.9883 54.727C34.4025 64.388 43.0186 71.37 53.3545 73.6903C53.3011 74.0728 53.2378 74.4525 53.2013 74.8392L51.8906 88.5938H88.5938V72.3375C88.5938 63.2827 82.9856 55.4048 74.5312 52.4166ZM26.7188 15.4688H15.4688C12.3666 15.4688 9.84375 12.9459 9.84375 9.84375C9.84375 6.74156 12.3666 4.21875 15.4688 4.21875H26.7188C29.8209 4.21875 32.3438 6.74156 32.3438 9.84375C32.3438 12.9459 29.8209 15.4688 26.7188 15.4688ZM4.21875 52.0312V23.9062H7.03125L7.03266 52.0312H4.21875ZM21.0938 42.6628L9.84375 48.3412V27.5794L21.0938 33.1523V42.6628ZM26.7188 46.4062H25.3125C24.5377 46.4062 23.9062 45.7762 23.9062 45V30.9375C23.9062 30.1612 24.5377 29.5312 25.3125 29.5312H26.7188V46.4062ZM77.3438 35.6245C77.3438 36.6511 76.853 37.6341 76.0303 38.25L71.7188 41.4844V50.625V52.0312V52.3631C69.7261 52.9523 67.8459 53.7764 66.0938 54.7903V46.4062H59.0625C57.2316 46.4062 55.6847 45.2264 55.1025 43.5938H57.6562C60.7584 43.5938 63.2812 41.0709 63.2812 37.9688H60.4688C60.4688 39.5198 59.2073 40.7812 57.6562 40.7812H54.8438V38.8378C54.8438 37.7634 54.2475 36.8002 53.2884 36.322L52.9425 36.1491C52.3814 35.8678 52.0312 35.3025 52.0312 34.6739C52.0312 34.3491 52.1269 34.0327 52.3083 33.7612L54.135 31.0219C54.5991 30.3258 54.8438 29.5172 54.8438 28.6805V26.7188H71.7188V32.3438H74.063C75.8714 32.3438 77.3438 33.8161 77.3438 35.6245ZM61.875 9.84375H73.125C78.5531 9.84375 82.9688 14.2608 82.9688 19.6875V23.9062H71.5767C70.9242 20.7014 68.0822 18.2812 64.6875 18.2812H52.1311C52.8159 13.5169 56.9236 9.84375 61.875 9.84375ZM47.8125 21.0938H64.6875C66.5212 21.0938 68.085 22.2694 68.6658 23.9062H47.8125C47.0377 23.9062 46.4062 23.2763 46.4062 22.5C46.4062 21.7237 47.0377 21.0938 47.8125 21.0938ZM34.6641 12.6562C34.9762 11.7745 35.1562 10.8309 35.1562 9.84375C35.1562 8.85656 34.9762 7.91297 34.6641 7.03125H43.5938C45.1448 7.03125 46.4062 8.29266 46.4062 9.84375C46.4062 11.3948 45.1448 12.6562 43.5938 12.6562H34.6641ZM43.5938 15.4688V21.0938H37.9688V15.4688H43.5938ZM29.5312 50.625V25.3125C29.5312 24.5362 30.1627 23.9062 30.9375 23.9062H43.8525C44.4347 25.5389 45.9816 26.7188 47.8125 26.7188H52.0312V28.6805C52.0312 28.9589 51.9497 29.2289 51.795 29.4609L49.9683 32.2017C49.4775 32.9358 49.2188 33.7908 49.2188 34.6739C49.2188 36.3741 50.1638 37.9041 51.6853 38.6648L52.0312 38.8378V42.1875C52.0312 46.0645 55.1855 49.2188 59.0625 49.2188H63.2812V52.0312H30.9375C30.1627 52.0312 29.5312 51.4012 29.5312 50.625ZM63.2812 54.8438V56.6691C61.8187 57.7927 60.4856 59.0695 59.2959 60.4688H53.5275C48.7069 60.4688 44.2617 58.3931 41.1666 54.8438H63.2812ZM33.158 54.8438H37.6312C41.2256 60.127 47.0911 63.2812 53.5261 63.2812H57.2161C55.7184 65.6128 54.5737 68.1848 53.8777 70.9284C44.9044 68.8838 37.3486 63.0098 33.158 54.8438ZM85.7812 85.7812H77.3438V77.3438H85.7812V85.7812ZM85.7812 74.5312H77.3438V68.9062H74.5312V85.7812H54.9844L56.0011 75.105C56.9194 65.468 63.765 57.3961 73.0898 54.8986C80.6977 57.3511 85.7812 64.3106 85.7812 72.3375V74.5312Z" fill="white"/>
</svg>
