<svg width="27" height="27" viewBox="0 0 27 27" fill="none" xmlns="http://www.w3.org/2000/svg">
<path d="M18.9527 19.3531C18.7052 19.323 18.4819 19.5003 18.4531 19.7473C18.4243 19.9944 18.6007 20.218 18.8473 20.2468C23.5795 20.8039 26.1 22.3051 26.1 23.175C26.1 24.3963 21.3066 26.1 13.5 26.1C5.6934 26.1 0.9 24.3963 0.9 23.175C0.9 22.3051 3.42045 20.8039 8.15265 20.2468C8.39925 20.218 8.57565 19.9939 8.54685 19.7473C8.5176 19.5003 8.2944 19.3221 8.04735 19.3531C3.3093 19.9111 0 21.4825 0 23.175C0 25.0758 4.63725 27 13.5 27C22.3627 27 27 25.0758 27 23.175C27 21.4825 23.6907 19.9111 18.9527 19.3531Z" fill="white"/>
<path d="M13.4202 24.6406L20.3236 14.67C22.9129 11.218 22.5385 5.544 19.5222 2.5281C17.8923 0.89775 15.7251 0 13.4202 0C11.1153 0 8.94809 0.89775 7.31819 2.52765C4.30184 5.54355 3.92744 11.2176 6.50639 14.656L13.4202 24.6406ZM13.4998 5.4C15.2368 5.4 16.6498 6.81345 16.6498 8.55C16.6498 10.2865 15.2368 11.7 13.4998 11.7C11.7628 11.7 10.3498 10.2865 10.3498 8.55C10.3498 6.81345 11.7628 5.4 13.4998 5.4Z" fill="white"/>
</svg>
