<svg width="30" height="30" viewBox="0 0 30 30" fill="none" xmlns="http://www.w3.org/2000/svg">
<path d="M21.2975 0H8.7025C7.4885 0 6.5 0.9885 6.5 2.2025V27.797C6.5 29.0115 7.4885 30 8.7025 30H21.297C22.5115 30 23.5 29.0115 23.5 27.7975V2.2025C23.5 0.9885 22.5115 0 21.2975 0ZM7.5 4H22.5V23H7.5V4ZM8.7025 1H21.297C21.9605 1 22.5 1.5395 22.5 2.2025V3H7.5V2.2025C7.5 1.5395 8.0395 1 8.7025 1ZM21.2975 29H8.7025C8.0395 29 7.5 28.4605 7.5 27.7975V24H22.5V27.7975C22.5 28.4605 21.9605 29 21.2975 29Z" fill="white"/>
<path d="M15 24.5C13.897 24.5 13 25.397 13 26.5C13 27.603 13.897 28.5 15 28.5C16.103 28.5 17 27.603 17 26.5C17 25.397 16.103 24.5 15 24.5ZM15 27.5C14.4485 27.5 14 27.0515 14 26.5C14 25.9485 14.4485 25.5 15 25.5C15.5515 25.5 16 25.9485 16 26.5C16 27.0515 15.5515 27.5 15 27.5Z" fill="white"/>
<path d="M13 2.5H15C15.2765 2.5 15.5 2.2765 15.5 2C15.5 1.7235 15.2765 1.5 15 1.5H13C12.7235 1.5 12.5 1.7235 12.5 2C12.5 2.2765 12.7235 2.5 13 2.5Z" fill="white"/>
<path d="M16.5 2.5H17C17.2765 2.5 17.5 2.2765 17.5 2C17.5 1.7235 17.2765 1.5 17 1.5H16.5C16.2235 1.5 16 1.7235 16 2C16 2.2765 16.2235 2.5 16.5 2.5Z" fill="white"/>
<path d="M28.3058 2.28456C28.1103 2.08906 27.7943 2.08906 27.5988 2.28456C27.4033 2.48006 27.4033 2.79606 27.5988 2.99156C29.4668 4.85956 29.4668 7.89906 27.5988 9.76756C27.4033 9.96306 27.4033 10.2791 27.5988 10.4746C27.6963 10.5721 27.8243 10.6211 27.9523 10.6211C28.0803 10.6211 28.2083 10.5721 28.3058 10.4746C30.5638 8.21706 30.5638 4.54256 28.3058 2.28456Z" fill="white"/>
<path d="M26.2003 3.4225C26.0048 3.227 25.6888 3.227 25.4933 3.4225C25.2978 3.618 25.2978 3.934 25.4933 4.1295C26.1118 4.748 26.4523 5.572 26.4523 6.449C26.4523 7.326 26.1118 8.1495 25.4933 8.768C25.2978 8.9635 25.2978 9.2795 25.4933 9.47501C25.5908 9.5725 25.7188 9.6215 25.8468 9.6215C25.9748 9.6215 26.1028 9.5725 26.2003 9.47501C27.0078 8.668 27.4523 7.593 27.4523 6.449C27.4523 5.305 27.0083 4.2295 26.2003 3.4225Z" fill="white"/>
<path d="M2.40099 2.99156C2.59649 2.79606 2.59649 2.48006 2.40099 2.28456C2.20549 2.08906 1.88949 2.08906 1.69399 2.28456C-0.564012 4.54256 -0.564012 8.21656 1.69399 10.4746C1.79149 10.5721 1.91949 10.6211 2.04749 10.6211C2.17549 10.6211 2.30349 10.5721 2.40099 10.4746C2.59649 10.2791 2.59649 9.96306 2.40099 9.76756C0.532488 7.89956 0.532488 4.86006 2.40099 2.99156Z" fill="white"/>
<path d="M4.50636 3.28456C4.31086 3.08906 3.99486 3.08906 3.79936 3.28456C2.99186 4.09156 2.54736 5.16656 2.54736 6.31056C2.54736 7.45457 2.99186 8.52956 3.79936 9.33706C3.89686 9.43456 4.02486 9.48356 4.15286 9.48356C4.28086 9.48356 4.40886 9.43456 4.50636 9.33706C4.70186 9.14156 4.70186 8.82556 4.50636 8.63006C3.88786 8.01156 3.54736 7.18756 3.54736 6.31056C3.54736 5.43356 3.88736 4.61006 4.50636 3.99156C4.70136 3.79656 4.70136 3.48006 4.50636 3.28456Z" fill="white"/>
</svg>
