<svg width="90" height="90" viewBox="0 0 90 90" fill="none" xmlns="http://www.w3.org/2000/svg">
<path d="M78.75 64.6875C74.0967 64.6875 70.3125 60.9033 70.3125 56.25C70.3125 51.5967 74.0967 47.8125 78.75 47.8125C83.4033 47.8125 87.1875 51.5967 87.1875 56.25C87.1875 60.9033 83.4033 64.6875 78.75 64.6875ZM78.75 53.4375C77.1989 53.4375 75.9375 54.6989 75.9375 56.25C75.9375 57.8011 77.1989 59.0625 78.75 59.0625C80.3011 59.0625 81.5625 57.8011 81.5625 56.25C81.5625 54.6989 80.3011 53.4375 78.75 53.4375Z" fill="#E5B57A"/>
<path d="M11.25 64.6875C6.59672 64.6875 2.8125 60.9033 2.8125 56.25C2.8125 51.5967 6.59672 47.8125 11.25 47.8125C15.9033 47.8125 19.6875 51.5967 19.6875 56.25C19.6875 60.9033 15.9033 64.6875 11.25 64.6875ZM11.25 53.4375C9.69891 53.4375 8.4375 54.6989 8.4375 56.25C8.4375 57.8011 9.69891 59.0625 11.25 59.0625C12.8011 59.0625 14.0625 57.8011 14.0625 56.25C14.0625 54.6989 12.8011 53.4375 11.25 53.4375Z" fill="#E5B57A"/>
<path d="M14.0625 18.2812C14.0625 17.1253 14.5294 16.0805 15.2817 15.3183C14.5687 12.1908 11.7773 9.84375 8.4375 9.84375C4.56047 9.84375 1.40625 12.998 1.40625 16.875C1.40625 20.752 4.56047 23.9062 8.4375 23.9062C11.0869 23.9062 13.3706 22.4156 14.5687 20.2458C14.2566 19.6566 14.0625 18.9942 14.0625 18.2812Z" fill="#E5B57A"/>
<path d="M81.5625 9.84375C78.2226 9.84375 75.4312 12.1908 74.7183 15.3183C75.4706 16.0805 75.9375 17.1253 75.9375 18.2812C75.9375 18.9942 75.7434 19.6566 75.4312 20.2458C76.6294 22.4156 78.9131 23.9062 81.5625 23.9062C85.4395 23.9062 88.5937 20.752 88.5937 16.875C88.5937 12.998 85.4395 9.84375 81.5625 9.84375Z" fill="#E5B57A"/>
<path d="M78.75 52.0312C76.4241 52.0312 74.5312 53.9241 74.5312 56.25C74.5312 58.5759 76.4241 60.4688 78.75 60.4688C81.0759 60.4688 82.9688 58.5759 82.9688 56.25C82.9688 53.9241 81.0759 52.0312 78.75 52.0312ZM78.75 57.6562C77.9752 57.6562 77.3438 57.0262 77.3438 56.25C77.3438 55.4738 77.9752 54.8438 78.75 54.8438C79.5248 54.8438 80.1562 55.4738 80.1562 56.25C80.1562 57.0262 79.5248 57.6562 78.75 57.6562Z" fill="white"/>
<path d="M11.25 52.0312C8.92406 52.0312 7.03125 53.9241 7.03125 56.25C7.03125 58.5759 8.92406 60.4688 11.25 60.4688C13.5759 60.4688 15.4688 58.5759 15.4688 56.25C15.4688 53.9241 13.5759 52.0312 11.25 52.0312ZM11.25 57.6562C10.4752 57.6562 9.84375 57.0262 9.84375 56.25C9.84375 55.4738 10.4752 54.8438 11.25 54.8438C12.0248 54.8438 12.6562 55.4738 12.6562 56.25C12.6562 57.0262 12.0248 57.6562 11.25 57.6562Z" fill="white"/>
<path d="M85.7812 40.7812H71.7188C70.1677 40.7812 68.9062 42.0427 68.9062 43.5937V60.4687H55.9716L70.1986 27.2728L67.6139 26.1647L52.913 60.4687H37.087L22.3861 26.1647L19.8014 27.2728L34.0284 60.4687H21.0938V43.5937C21.0938 42.0427 19.8323 40.7812 18.2812 40.7812H4.21875C2.66766 40.7812 1.40625 42.0427 1.40625 43.5937V85.7812C1.40625 87.3323 2.66766 88.5937 4.21875 88.5937H85.7812C87.3323 88.5937 88.5938 87.3323 88.5938 85.7812V43.5937C88.5938 42.0427 87.3323 40.7812 85.7812 40.7812ZM71.7188 43.5937H85.7812V68.9062H71.7188V43.5937ZM4.21875 43.5937H18.2812V68.9062H4.21875V43.5937ZM18.2812 71.7187C19.8323 71.7187 21.0938 70.4573 21.0938 68.9062V63.2812H35.2336L36.6764 66.6478L39.2611 65.5411L38.2922 63.2812H51.7064L50.7389 65.5397L53.3236 66.6464L54.7664 63.2812H68.9062V68.9062C68.9062 70.4573 70.1677 71.7187 71.7188 71.7187H85.7812V80.1562H4.21875V71.7187H18.2812ZM4.21875 85.7812V82.9687H85.7812V85.7812H4.21875Z" fill="white"/>
<path d="M45 77.3438C55.1602 77.3438 66.0938 75.1444 66.0938 70.3125C66.0938 68.0892 63.8606 66.3089 59.4562 65.025L58.6688 67.725C62.4333 68.8233 63.2812 69.9905 63.2812 70.3125C63.2812 71.5739 57.0614 74.5313 45 74.5313C32.9386 74.5313 26.7188 71.5739 26.7188 70.3125C26.7188 69.8414 28.0884 68.5252 32.3227 67.4578L31.6364 64.7311C26.5781 66.0052 23.9062 67.9345 23.9062 70.3125C23.9062 75.1444 34.8398 77.3438 45 77.3438Z" fill="white"/>
<path d="M8.4375 18.2812C9.21415 18.2812 9.84375 17.6517 9.84375 16.875C9.84375 16.0983 9.21415 15.4688 8.4375 15.4688C7.66085 15.4688 7.03125 16.0983 7.03125 16.875C7.03125 17.6517 7.66085 18.2812 8.4375 18.2812Z" fill="white"/>
<path d="M81.5625 18.2812C82.3392 18.2812 82.9688 17.6517 82.9688 16.875C82.9688 16.0983 82.3392 15.4688 81.5625 15.4688C80.7858 15.4688 80.1562 16.0983 80.1562 16.875C80.1562 17.6517 80.7858 18.2812 81.5625 18.2812Z" fill="white"/>
<path d="M1.40625 1.40625V4.21875H8.76656L4.7475 10.9167C5.82328 10.2473 7.08047 9.84375 8.4375 9.84375C8.51344 9.84375 8.58375 9.86063 8.65969 9.86344L11.25 5.54625L15.8583 13.2272C13.9711 14.1356 12.6562 16.0509 12.6562 18.2812C12.6562 21.3834 15.1791 23.9062 18.2812 23.9062C21.3834 23.9062 23.9062 21.3834 23.9062 18.2812H66.0938C66.0938 21.3834 68.6166 23.9062 71.7188 23.9062C74.8209 23.9062 77.3438 21.3834 77.3438 18.2812C77.3438 16.0509 76.0289 14.1356 74.1417 13.2272L78.75 5.54625L81.3403 9.86344C81.4163 9.86063 81.4866 9.84375 81.5625 9.84375C82.9195 9.84375 84.1767 10.2473 85.2525 10.9167L81.2334 4.21875H88.5938V1.40625H1.40625ZM69.6628 13.0584L64.3584 4.21875H76.2666L71.1703 12.7111C70.6444 12.7631 70.1367 12.8714 69.6628 13.0584ZM20.3386 13.0584C19.8647 12.8714 19.357 12.7631 18.8297 12.7125L13.7334 4.21875H25.6416L20.3386 13.0584ZM45 5.54625L50.9541 15.4688H39.0459L45 5.54625ZM36.5625 14.1412L30.6084 4.21875H42.5166L36.5625 14.1412ZM47.4834 4.21875H59.3916L53.4375 14.1412L47.4834 4.21875ZM18.2812 21.0938C16.7302 21.0938 15.4688 19.8323 15.4688 18.2812C15.4688 16.7302 16.7302 15.4688 18.2812 15.4688C19.8323 15.4688 21.0938 16.7302 21.0938 18.2812C21.0938 19.8323 19.8323 21.0938 18.2812 21.0938ZM23.1244 15.4688C22.9725 15.2086 22.8023 14.9667 22.6125 14.7361L28.125 5.54625L34.0791 15.4688H23.1244ZM55.9209 15.4688L61.875 5.54625L67.3889 14.7361C67.1991 14.9667 67.0275 15.21 66.877 15.4702H55.9209V15.4688ZM71.7188 21.0938C70.1677 21.0938 68.9062 19.8323 68.9062 18.2812C68.9062 16.7302 70.1677 15.4688 71.7188 15.4688C73.2698 15.4688 74.5312 16.7302 74.5312 18.2812C74.5312 19.8323 73.2698 21.0938 71.7188 21.0938Z" fill="white"/>
<path d="M9.91113 25.7715L12.5802 24.8827L16.796 37.5434L14.1269 38.4322L9.91113 25.7715Z" fill="white"/>
<path d="M73.1909 37.4943L77.4067 24.8336L80.0758 25.7223L75.86 38.383L73.1909 37.4943Z" fill="white"/>
<path d="M63.6397 22.9683L44.9998 43.8005L26.36 22.9683L24.2646 24.8442L43.1126 45.9098L39.7334 49.687L41.8287 51.563L44.9998 48.0192L48.1709 51.563L50.2662 49.687L46.887 45.9098L65.735 24.8442L63.6397 22.9683Z" fill="white"/>
</svg>
