<svg width="90" height="90" viewBox="0 0 90 90" fill="none" xmlns="http://www.w3.org/2000/svg">
<path d="M13.0645 1.45161H76.9354V7.25806H13.0645V1.45161Z" fill="#E5B57A"/>
<path d="M45.0002 78.3871C31.3927 78.3871 20.3228 67.3171 20.3228 53.7097C20.3228 40.1022 31.3927 29.0323 45.0002 29.0323C58.6076 29.0323 69.6776 40.1022 69.6776 53.7097C69.6776 67.3171 58.6076 78.3871 45.0002 78.3871ZM45.0002 42.0968C38.5969 42.0968 33.3873 47.3064 33.3873 53.7097C33.3873 60.1129 38.5969 65.3226 45.0002 65.3226C51.4034 65.3226 56.6131 60.1129 56.6131 53.7097C56.6131 47.3064 51.4034 42.0968 45.0002 42.0968Z" fill="#E5B57A"/>
<path d="M15.9676 63.871H18.8709C21.2715 63.871 23.2257 61.9168 23.2257 59.5161V45.6734C23.2257 33.6727 32.3068 23.8254 43.8998 23.2534C49.9473 22.9501 55.6375 25.0793 60.0008 29.2328C64.3684 33.3899 66.7741 38.9887 66.7741 45V59.5161C66.7741 61.9168 68.7282 63.871 71.1289 63.871H74.0322C76.4328 63.871 78.387 61.9168 78.387 59.5161V45C78.387 33.7599 72.6748 23.3463 63.4952 17.2159C69.4264 16.4136 74.7679 13.1255 78.1432 8.06396L78.387 7.69823V0H11.6128V7.69823L11.8566 8.06396C15.2319 13.1255 20.572 16.4136 26.5032 17.2159C17.325 23.3463 11.6128 33.7599 11.6128 45V59.5161C11.6128 61.9168 13.5669 63.871 15.9676 63.871ZM14.516 6.8094V2.90323H75.4838V6.8094C72.0943 11.6434 66.5855 14.5161 60.6614 14.5161H29.3384C23.4142 14.5161 17.9055 11.6434 14.516 6.8094ZM14.516 45C14.516 33.2248 21.3807 22.4362 32.0211 17.4194H57.9786C68.6191 22.4362 75.4838 33.2248 75.4838 45V59.5161C75.4838 60.3156 74.8331 60.9677 74.0322 60.9677H71.1289C70.328 60.9677 69.6773 60.3156 69.6773 59.5161V45C69.6773 38.1878 66.9513 31.8412 62.0025 27.1291C57.0586 22.4227 50.5611 20.0192 43.7588 20.3531C30.617 21.0016 20.3225 32.124 20.3225 45.6734V59.5161C20.3225 60.3156 19.6718 60.9677 18.8709 60.9677H15.9676C15.1667 60.9677 14.516 60.3156 14.516 59.5161V45Z" fill="white"/>
<path d="M45.0001 66.7742C52.2043 66.7742 58.0646 60.9125 58.0646 53.7097C58.0646 46.5069 52.2043 40.6452 45.0001 40.6452C37.7959 40.6452 31.9355 46.5069 31.9355 53.7097C31.9355 60.9125 37.7959 66.7742 45.0001 66.7742ZM45.0001 43.5484C50.6017 43.5484 55.1614 48.1066 55.1614 53.7097C55.1614 59.3127 50.6017 63.871 45.0001 63.871C39.3985 63.871 34.8388 59.3127 34.8388 53.7097C34.8388 48.1066 39.3985 43.5484 45.0001 43.5484Z" fill="white"/>
<path d="M46.4516 36.2903C46.4516 37.092 45.8016 37.7419 45 37.7419C44.1983 37.7419 43.5483 37.092 43.5483 36.2903C43.5483 35.4887 44.1983 34.8387 45 34.8387C45.8016 34.8387 46.4516 35.4887 46.4516 36.2903Z" fill="white"/>
<path d="M46.4516 71.129C46.4516 71.9307 45.8016 72.5806 45 72.5806C44.1983 72.5806 43.5483 71.9307 43.5483 71.129C43.5483 70.3274 44.1983 69.6774 45 69.6774C45.8016 69.6774 46.4516 70.3274 46.4516 71.129Z" fill="white"/>
<path d="M33.7094 42.4193C34.2765 41.8515 34.2765 40.9329 33.7094 40.3666C33.1417 39.7989 32.2231 39.7989 31.6568 40.3666C31.089 40.9343 31.089 41.8529 31.6568 42.4193C32.2245 42.9849 33.1417 42.9849 33.7094 42.4193Z" fill="white"/>
<path d="M29.0321 53.7097C29.0321 54.5113 28.3822 55.1613 27.5805 55.1613C26.7789 55.1613 26.1289 54.5113 26.1289 53.7097C26.1289 52.908 26.7789 52.2581 27.5805 52.2581C28.3822 52.2581 29.0321 52.908 29.0321 53.7097Z" fill="white"/>
<path d="M31.6568 67.0527C32.2245 67.6205 33.1431 67.6205 33.7094 67.0527C34.2765 66.485 34.2765 65.5664 33.7094 65.0001C33.1417 64.433 32.2231 64.433 31.6568 65.0001C31.089 65.5678 31.089 66.4864 31.6568 67.0527Z" fill="white"/>
<path d="M58.3432 67.0527C58.9109 66.485 58.9109 65.5664 58.3432 65.0001C57.7754 64.433 56.8568 64.433 56.2905 65.0001C55.7235 65.5678 55.7235 66.4864 56.2905 67.0527C56.8583 67.6205 57.7769 67.6205 58.3432 67.0527Z" fill="white"/>
<path d="M63.871 53.7097C63.871 54.5113 63.221 55.1613 62.4194 55.1613C61.6177 55.1613 60.9678 54.5113 60.9678 53.7097C60.9678 52.908 61.6177 52.2581 62.4194 52.2581C63.221 52.2581 63.871 52.908 63.871 53.7097Z" fill="white"/>
<path d="M58.3432 40.3666C57.7754 39.7989 56.8568 39.7989 56.2905 40.3666C55.7235 40.9343 55.7235 41.8529 56.2905 42.4193C56.8583 42.9863 57.7769 42.9863 58.3432 42.4193C58.9095 41.8515 58.9109 40.9329 58.3432 40.3666Z" fill="white"/>
<path d="M44.9999 58.0645C47.4006 58.0645 49.3547 56.1104 49.3547 53.7097C49.3547 51.309 47.4006 49.3548 44.9999 49.3548C42.5992 49.3548 40.645 51.309 40.645 53.7097C40.645 56.1104 42.5992 58.0645 44.9999 58.0645ZM44.9999 52.2581C45.8008 52.2581 46.4515 52.9102 46.4515 53.7097C46.4515 54.5092 45.8008 55.1613 44.9999 55.1613C44.1989 55.1613 43.5482 54.5092 43.5482 53.7097C43.5482 52.9102 44.1989 52.2581 44.9999 52.2581Z" fill="white"/>
<path d="M67.5001 71.129L59.7643 81.4427L53.5574 69.0289L50.959 70.326L59.2682 86.9444L68.9518 74.0323H90.0001V71.129H67.5001Z" fill="white"/>
<path d="M71.1289 76.9355H88.5483V79.8387H71.1289V76.9355Z" fill="white"/>
<path d="M72.5806 82.7419H75.4838V85.6452H72.5806V82.7419Z" fill="white"/>
<path d="M78.3872 82.7419H81.2904V85.6452H78.3872V82.7419Z" fill="white"/>
<path d="M84.1934 82.7419H87.0966V85.6452H84.1934V82.7419Z" fill="white"/>
<path d="M30.9382 87.0968H29.0323V75.4839H26.129V87.0968H23.2258V78.3871H20.3226V87.0968H17.4194V84.1935H14.5161V87.0968H11.6129V74.0323H8.70968V87.0968H5.80645V79.8387H2.90323V87.0968H0V90H32.9328L40.5495 70.1984L37.8376 69.1565L30.9382 87.0968Z" fill="white"/>
</svg>
