<svg width="90" height="90" viewBox="0 0 90 90" fill="none" xmlns="http://www.w3.org/2000/svg">
<path d="M42.1875 28.125H42.2128C41.6377 27.6947 41.092 27.2306 40.59 26.7188H35.1562V63.2812H43.3589L42.1875 28.125Z" fill="#E5B57A"/>
<path d="M78.75 26.7188H60.66C60.158 27.2306 59.6124 27.6947 59.0372 28.125H59.0625L57.8911 63.2812H78.75C81.076 63.2812 82.9688 61.3884 82.9688 59.0625V30.9375C82.9688 28.6116 81.076 26.7188 78.75 26.7188Z" fill="#E5B57A"/>
<path d="M46.4062 43.5938V52.0312C46.4062 53.5823 47.6677 54.8438 49.2188 54.8438H52.0312C53.5823 54.8438 54.8438 53.5823 54.8438 52.0312V43.5938C54.8438 42.0427 53.5823 40.7812 52.0312 40.7812H49.2188C47.6677 40.7812 46.4062 42.0427 46.4062 43.5938ZM49.2188 52.0312V49.2188H52.0327V52.0312H49.2188ZM52.0312 46.4062H49.2188V43.5938H52.0312V46.4062Z" fill="white"/>
<path d="M63.2812 46.4062H66.0938V49.2188H63.2812V46.4062Z" fill="white"/>
<path d="M68.9062 46.4062H71.7188V49.2188H68.9062V46.4062Z" fill="white"/>
<path d="M74.5312 46.4062H77.3438V49.2188H74.5312V46.4062Z" fill="white"/>
<path d="M78.7502 21.0938H65.4949C65.8759 19.7508 66.0939 18.3389 66.0939 16.875C66.0939 8.34609 59.1541 1.40625 50.6252 1.40625C42.0963 1.40625 35.1564 8.34609 35.1564 16.875C35.1564 18.3389 35.3744 19.7508 35.7555 21.0938H1.40641L6.58141 27.9928L0.824219 33.75L6.44922 39.375L0.824219 45L6.44922 50.625L0.824219 56.25L6.58141 62.0072L1.40641 68.9062H42.1412L42.1441 68.9991C42.1933 70.5234 43.428 71.7188 44.9537 71.7188H49.2189V80.1562C49.2189 84.8095 53.0031 88.5938 57.6564 88.5938C62.3097 88.5938 66.0939 84.8095 66.0939 80.1562V68.9062H74.5314V74.79C72.8988 75.3722 71.7189 76.9191 71.7189 78.75C71.7189 81.0759 73.6117 82.9688 75.9377 82.9688C78.2636 82.9688 80.1564 81.0759 80.1564 78.75C80.1564 76.9191 78.9766 75.3722 77.3439 74.79V68.9062H78.7502C84.1769 68.9062 88.5939 64.4906 88.5939 59.0625V30.9375C88.5939 25.5094 84.1769 21.0938 78.7502 21.0938ZM56.485 63.2812H44.7667L43.6797 30.6773C45.7708 31.7348 48.1263 32.3438 50.6252 32.3438C53.1241 32.3438 55.4795 31.7348 57.5706 30.6773L56.485 63.2812ZM37.9689 16.875C37.9689 16.3997 37.9998 15.9314 38.0519 15.4688H63.1984C63.2505 15.9314 63.2814 16.3997 63.2814 16.875C63.2814 17.3503 63.2505 17.8186 63.1984 18.2812H38.0519C37.9998 17.8186 37.9689 17.3503 37.9689 16.875ZM61.1411 9.84375C61.7219 10.71 62.1873 11.6564 62.5431 12.6562H60.4689V9.84375H61.1411ZM57.6564 7.03125H54.8439V4.95703C55.8438 5.31141 56.7902 5.77687 57.6564 6.35906V7.03125ZM57.6564 9.84375V12.6562H54.8439V9.84375H57.6564ZM52.0314 12.6562H49.2189V9.84375H52.0314V12.6562ZM46.4064 12.6562H43.5939V9.84375H46.4064V12.6562ZM43.5939 7.03125V6.35906C44.4602 5.77828 45.4066 5.31281 46.4064 4.95703V7.03125H43.5939ZM40.7814 9.84375V12.6562H38.7072C39.0616 11.6564 39.527 10.71 40.1092 9.84375H40.7814ZM46.4064 21.0938V23.9062H43.5939V21.0938H46.4064ZM52.0314 21.0938V23.9062H49.2189V21.0938H52.0314ZM43.5939 26.7188H46.4064V28.793C45.4066 28.4386 44.4602 27.9731 43.5939 27.3909V26.7188ZM49.2189 26.7188H52.0314V29.4483C51.5688 29.5003 51.1005 29.5312 50.6252 29.5312C50.1498 29.5312 49.6816 29.5003 49.2189 29.4483V26.7188ZM54.8439 26.7188H57.6564V27.3909C56.7902 27.9717 55.8438 28.4372 54.8439 28.793V26.7188ZM54.8439 23.9062V21.0938H57.6564V23.9062H54.8439ZM40.7814 21.0938V23.9062H40.1092C39.5284 23.04 39.063 22.0936 38.7072 21.0938H40.7814ZM61.1411 23.9062H60.4689V21.0938H62.5431C62.1888 22.0936 61.7233 23.04 61.1411 23.9062ZM52.0314 4.30172V7.03125H49.2189V4.30172C49.6816 4.24969 50.1498 4.21875 50.6252 4.21875C51.1005 4.21875 51.5688 4.24969 52.0314 4.30172ZM4.80109 56.25L10.4261 50.625L4.80109 45L10.4261 39.375L4.80109 33.75L10.2939 28.2572L7.03141 23.9062H29.5314V66.0938H7.03141L10.2939 61.7428L4.80109 56.25ZM32.3439 66.0938V23.9062H36.8636C37.8353 25.8005 39.1741 27.4739 40.8039 28.8169L42.047 66.0938H32.3439ZM44.8595 66.0938H56.3908L56.2966 68.9062H44.9537L44.8595 66.0938ZM63.2814 80.1562C63.2814 83.2584 60.7586 85.7812 57.6564 85.7812C54.5542 85.7812 52.0314 83.2584 52.0314 80.1562V71.7188H56.2966C57.8223 71.7188 59.057 70.5234 59.1063 68.9991L59.1091 68.9062H63.2814V80.1562ZM66.0939 66.0938V59.0625C66.0939 56.7366 67.9867 54.8438 70.3127 54.8438C72.6386 54.8438 74.5314 56.7366 74.5314 59.0625V66.0938H66.0939ZM75.9377 80.1562C75.1614 80.1562 74.5314 79.5248 74.5314 78.75C74.5314 77.9752 75.1614 77.3438 75.9377 77.3438C76.7139 77.3438 77.3439 77.9752 77.3439 78.75C77.3439 79.5248 76.7139 80.1562 75.9377 80.1562ZM85.7814 59.0625C85.7814 62.9395 82.6272 66.0938 78.7502 66.0938H77.3439V59.0625C77.3439 55.1855 74.1897 52.0312 70.3127 52.0312C66.4356 52.0312 63.2814 55.1855 63.2814 59.0625V66.0938H59.2033L60.4464 28.8169C62.0763 27.4753 63.415 25.8005 64.3867 23.9062H78.7502C82.6272 23.9062 85.7814 27.0605 85.7814 30.9375V59.0625Z" fill="white"/>
<path d="M26.7188 26.7188H12.6562V52.0312H26.7188V26.7188ZM23.9062 29.5312V32.3438H15.4688V29.5312H23.9062ZM15.4688 37.9688V35.1562H23.9062V37.9688H15.4688ZM23.9062 40.7812V43.5938H15.4688V40.7812H23.9062ZM15.4688 49.2188V46.4062H23.9062V49.2188H15.4688Z" fill="white"/>
<path d="M12.6562 54.8438H15.4688V60.4688H12.6562V54.8438Z" fill="white"/>
<path d="M18.2812 54.8438H21.0938V63.2812H18.2812V54.8438Z" fill="white"/>
<path d="M23.9062 54.8438H26.7188V57.6562H23.9062V54.8438Z" fill="white"/>
<path d="M23.9062 60.4688H26.7188V63.2812H23.9062V60.4688Z" fill="white"/>
</svg>
